<svg width="27" height="29" viewBox="0 0 27 29" fill="none" xmlns="http://www.w3.org/2000/svg">
<path d="M26.2815 27.5799L24.7918 25.918C24.8925 23.7081 25.0588 12.8778 19.1657 6.30306C14.0663 0.614161 5.98153 0 2.74217 0C1.81494 0 1.2577 0.0490993 1.23458 0.0511798C0.8698 0.0840516 0.579992 0.406944 0.550899 0.813889C0.513601 1.3336 -0.292041 13.626 6.15496 20.8178C11.2544 26.5067 19.3399 27.1205 22.5793 27.1205C23.0858 27.1205 23.4766 27.1059 23.7359 27.0926L25.2271 28.7562C25.3725 28.9189 25.5635 29 25.7545 29C25.9454 29 26.1364 28.9189 26.2819 28.7562C26.5728 28.4312 26.5728 27.9048 26.2815 27.5799ZM7.20938 19.6411C2.10847 13.9505 1.94548 4.37819 2.00889 1.67605C2.21254 1.66939 2.45908 1.66481 2.74217 1.66481C5.79578 1.66481 13.4057 2.23154 18.1109 7.48021C22.633 12.525 23.2737 20.6181 23.317 24.2723L17.8129 18.1323L18.5059 11.506C18.5537 11.0495 18.2605 10.6363 17.8517 10.5831C17.4392 10.5306 17.0722 10.8568 17.0244 11.3129L16.4683 16.6319L12.7001 12.4285L12.1175 7.50933C12.0634 7.05371 11.6867 6.73165 11.2801 6.79323C10.8717 6.85356 10.5841 7.27174 10.6382 7.72737L10.9657 10.494L6.5962 5.619C6.30528 5.29402 5.83233 5.29402 5.54141 5.619C5.25011 5.94397 5.25011 6.47075 5.54141 6.79572L9.91053 11.6699L7.43131 11.3046C7.02289 11.2447 6.64767 11.565 6.59396 12.0207C6.53988 12.4763 6.82745 12.8945 7.23587 12.9548L11.6445 13.6048L15.4128 17.8082L10.6453 18.4286C10.2361 18.4819 9.94335 18.895 9.99109 19.3515C10.0355 19.7755 10.3577 20.0876 10.7311 20.0876C10.7598 20.0876 10.7889 20.0859 10.8184 20.0818L16.7577 19.3091L22.2667 25.4548C19.0337 25.4145 11.7616 24.7196 7.20938 19.6411Z" fill="#2A2A2A"/>
</svg>
